# xmcd CD database file
#
# Track frame offsets:
#	150
#	26320
#	52034
#	69647
#	93795
#	118303
#	136585
#	160137
#	190926
#	211274
#	240205
#	267381
#
# Disc length: 3861 seconds
#
# Revision: 3
# Processed by: cddbd v1.5.1PL0 Copyright (c) Steve Scherf et al.
# Submitted via: CDex 1.40Release
#
DISCID=9d0f130c
DTITLE=Ismael Serrano - Principio de incertidumbre
DYEAR=2003
DGENRE=
TTITLE0=Últimamente
TTITLE1=Principio de incertidumbre
TTITLE2=Cien dias
TTITLE3=Vine del norte
TTITLE4=Ya llegó la primavera
TTITLE5=Kilómetro cero
TTITLE6=Eres
TTITLE7=La extraña pareja
TTITLE8=Aquella tarde
TTITLE9=Pájaros en la cabeza
TTITLE10=Amo tanto la vida
TTITLE11=Plaza Garibaldi
EXTD=per ReiSombra YEAR: 2003
EXTT0=per ReiSombra
EXTT1=per ReiSombra
EXTT2=per ReiSombra
EXTT3=per ReiSombra
EXTT4=per ReiSombra
EXTT5=per ReiSombra
EXTT6=per ReiSombra
EXTT7=per ReiSombra
EXTT8=per ReiSombra
EXTT9=per ReiSombra
EXTT10=per ReiSombra
EXTT11=per ReiSombra
PLAYORDER=
